<?xml version="1.0" encoding="UTF-8"?>
<svg version="1.1" xmlns="http://www.w3.org/2000/svg" width="1024" height="1024">
<path d="M0 0 C337.92 0 675.84 0 1024 0 C1024 337.92 1024 675.84 1024 1024 C686.08 1024 348.16 1024 0 1024 C0 686.08 0 348.16 0 0 Z " fill="#BDE0C0" transform="translate(0,0)"/>
<path d="M0 0 C9.81655469 1.22706934 19.17606067 2.4385053 28.75 4.625 C30.46292236 5.0130481 30.46292236 5.0130481 32.21044922 5.40893555 C80.34943191 16.5651727 125.88089441 35.23174322 168 61 C168.83450684 61.50821289 169.66901367 62.01642578 170.52880859 62.54003906 C182.43116767 69.81752211 193.80126934 77.68566565 205 86 C205.5892627 86.43473633 206.17852539 86.86947266 206.78564453 87.31738281 C221.33256802 98.05061861 235.16172893 109.59822944 248.5234375 121.76953125 C250.59701816 123.6370621 252.69082972 125.47413488 254.796875 127.3046875 C258.90238936 130.89163573 262.90633359 134.57513332 266.875 138.3125 C267.59461914 138.98966064 268.31423828 139.66682129 269.05566406 140.36450195 C278.06893394 148.89484868 286.85612511 157.66994305 295.51757812 166.55712891 C297.60035433 168.68258495 299.50350788 170.33567192 302 172 C302 172.66 302 173.32 302 174 C302.55171875 174.22300781 303.1034375 174.44601562 303.671875 174.67578125 C306.7305676 176.41554097 308.8073812 178.65764482 311.25 181.1875 C316.48738042 186.54351236 321.74504053 191.83002702 328 196 C328 196.66 328 197.32 328 198 C328.58990723 198.27384521 329.17981445 198.54769043 329.78759766 198.82983398 C331.92460433 199.96012233 333.56281834 201.16024184 335.3984375 202.72265625 C336.03523438 203.25665039 336.67203125 203.79064453 337.328125 204.34082031 C338.00359375 204.90897461 338.6790625 205.47712891 339.375 206.0625 C346.5865991 212.01206926 353.96356664 217.23557416 362 222 C362.62874023 222.37608398 363.25748047 222.75216797 363.90527344 223.13964844 C398.67005091 243.7839389 436.27255966 251.7134745 476.05615234 241.79150391 C483.88971737 239.68531566 491.4737167 237.01444521 499 234 C499.70415039 233.71898437 500.40830078 233.43796875 501.13378906 233.1484375 C534.34388541 219.68190862 564.59842398 198.57677209 593 177 C593.59377441 176.55253418 594.18754883 176.10506836 594.79931641 175.64404297 C603.42990106 169.13929183 611.81395801 162.33793307 620.17529297 155.49267578 C621.78223696 154.17813798 623.39279191 152.86801698 625.00390625 151.55859375 C630.44537561 147.13096439 635.81982303 142.63112267 641.16259766 138.08544922 C644.59079494 135.1738714 648.05992273 132.32222054 651.5625 129.5 C656.64589088 125.36649822 661.45097261 120.97779514 666.2578125 116.53125 C675.5 108 675.5 108 678 108 C678 107.34 678 106.68 678 106 C682.47058824 102 682.47058824 102 685 102 C685 101.34 685 100.68 685 100 C686.3984375 98.58984375 686.3984375 98.58984375 688.375 96.9375 C691.62941067 94.17182591 694.83413833 91.36691808 698 88.5 C701.61676345 85.23609152 705.26389608 82.01209051 708.9375 78.8125 C711.30964429 76.72788836 713.65556065 74.61571356 716 72.5 C719.62159875 69.23172796 723.2728359 66.00263277 726.953125 62.80078125 C729.2415625 60.78748032 731.49483116 58.73797995 733.75 56.6875 C739.35918629 51.62001082 745.16458961 46.80268312 751 42 C754.71268094 43.54127351 756.98115698 45.80843234 759.75 48.6875 C762.68598169 51.68758609 765.60628954 54.60321813 768.8125 57.3125 C773.18538907 61.04675213 777.16911702 65.14247456 781.20874023 69.22827148 C784.75996835 72.80435871 788.39944274 76.19701622 792.2421875 79.4609375 C794.65873348 81.57675776 796.87809793 83.86614905 799.12646484 86.15771484 C800.93431894 87.93541448 802.79656374 89.59735265 804.71875 91.25 C809.60636103 95.49911906 814.29899449 99.94143033 819 104.39453125 C822.98271482 108.15166262 827.03065907 111.81078781 831.16455078 115.40087891 C840.22657724 123.29610015 848.90250274 131.64579035 857.640625 139.89453125 C860.43232053 142.52831144 863.23347406 145.15114119 866.046875 147.76171875 C873.1662868 154.37466655 880.17890201 161.078701 887.0625 167.9375 C888.09793945 168.96605103 888.09793945 168.96605103 889.15429688 170.01538086 C893.07509532 173.94810968 896.78950991 177.99873375 900.41674805 182.20288086 C902.46133226 184.52364946 904.64584965 186.66966355 906.875 188.8125 C911.11011558 193.00296828 914.89313085 197.39182433 918.60546875 202.046875 C920.28592455 204.11934577 921.97780122 206.139495 923.73828125 208.140625 C932.1086474 217.65636529 939.66260829 227.67022659 947 238 C947.45616699 238.64018066 947.91233398 239.28036133 948.38232422 239.93994141 C980.56068999 285.50430939 1006.06909507 344.48230077 1007 401 C1007.02046387 402.05993164 1007.04092773 403.11986328 1007.06201172 404.21191406 C1008.00795409 460.98409182 1008.00795409 460.98409182 999 479 C669.33 479 339.66 479 0 479 C0 320.93 0 162.86 0 0 Z " fill="#9ED4B5" transform="translate(0,545)"/>
<path d="M0 0 C58.08 0 116.16 0 176 0 C176 337.92 176 675.84 176 1024 C167.75 1024 159.5 1024 151 1024 C151.33773438 1022.22238281 151.67546875 1020.44476562 152.0234375 1018.61328125 C156.39670063 995.19500446 158.45644975 973.00865771 158.05322266 949.17236328 C158.021872 947.30369137 157.99761917 945.43483627 157.98974609 943.56591797 C157.82166972 906.06719451 143.77705347 868.41644644 128 835 C127.62149902 834.19240234 127.24299805 833.38480469 126.85302734 832.55273438 C113.78554831 804.88042584 96.73987631 779.34115245 77 756 C76.47631836 755.37867188 75.95263672 754.75734375 75.41308594 754.1171875 C64.3436117 740.92282447 64.3436117 740.92282447 52.4375 728.5 C50 726 50 726 50 724 C49.01 723.67 48.02 723.34 47 723 C45.50756836 721.48852539 45.50756836 721.48852539 43.90234375 719.53515625 C39.69870711 714.5832745 35.16442892 710.01749757 30.5625 705.4375 C29.75490234 704.62603516 28.94730469 703.81457031 28.11523438 702.97851562 C23.77230873 698.64258906 19.34765273 694.47824973 14.69506836 690.47680664 C12.70003198 688.7386567 10.83753372 686.90315992 9 685 C6.41990785 682.37959391 3.78896393 679.89676588 1 677.5 C-1.78896393 675.10323412 -4.41990785 672.62040609 -7 670 C-10.12765928 666.82991123 -13.36839023 663.87676802 -16.7421875 660.97265625 C-19.49446258 658.56798685 -22.18634832 656.10017231 -24.875 653.625 C-28.50000065 650.28839657 -32.13847948 646.97027707 -35.8125 643.6875 C-41.96555422 638.16351203 -47.98796362 632.50080641 -54.02246094 626.84814453 C-55.99229849 625.00719759 -57.96782937 623.17257315 -59.9453125 621.33984375 C-66.35476707 615.39349077 -72.65880765 609.39115853 -78.80078125 603.16796875 C-81.45418453 600.55226924 -84.24022931 598.13185204 -87.0703125 595.7109375 C-89.84596847 593.24993079 -92.4124588 590.59780891 -95.01171875 587.953125 C-96.87986247 586.11801329 -98.80733487 584.43254182 -100.8125 582.75 C-106.36242189 577.97423224 -111.12735999 572.44589177 -116 567 C-116.6909375 566.2471875 -117.381875 565.494375 -118.09375 564.71875 C-132.41783062 548.98574342 -144.6606764 531.56440047 -155 513 C-155.45552246 512.18611816 -155.91104492 511.37223633 -156.38037109 510.53369141 C-163.47054442 497.75765492 -169.29155921 484.83235272 -174 471 C-174.43119141 469.74123047 -174.43119141 469.74123047 -174.87109375 468.45703125 C-179.01716307 456.13346115 -181.51199667 443.90603988 -183 431 C-183.0942627 430.28086426 -183.18852539 429.56172852 -183.28564453 428.82080078 C-185.77178668 407.96656015 -185.73831837 384.48799943 -181 364 C-180.66137939 362.49928955 -180.66137939 362.49928955 -180.31591797 360.96826172 C-171.43690347 322.45818399 -154.77426084 287.07460565 -135 253 C-134.46068848 252.06236816 -133.92137695 251.12473633 -133.36572266 250.15869141 C-125.78218678 236.97994712 -118.02392547 223.9152024 -110 211 C-109.56606934 210.29762207 -109.13213867 209.59524414 -108.68505859 208.87158203 C-101.15755522 196.70538946 -93.24259118 184.80799121 -85.29101562 172.91723633 C-79.10563007 163.66738685 -72.94860962 154.40469902 -67 145 C-66.24976563 143.81398193 -66.24976563 143.81398193 -65.484375 142.60400391 C-57.29105064 129.60555334 -49.45699849 116.43427339 -42 103 C-41.41460449 101.9495752 -40.82920898 100.89915039 -40.22607422 99.81689453 C-22.45418332 67.77696803 -9.36369784 35.5820518 0 0 Z " fill="#D7E8B1" transform="translate(848,0)"/>
<path d="M0 0 C138.93 0 277.86 0 421 0 C416.49165548 11.27086131 416.49165548 11.27086131 413.93359375 16.58203125 C413.3715625 17.75032471 412.80953125 18.91861816 412.23046875 20.12231445 C411.63331745 21.35262152 411.03564943 22.5826779 410.4375 23.8125 C410.1290918 24.44827972 409.82068359 25.08405945 409.50292969 25.73910522 C399.82770099 45.66655152 389.37861667 64.98992882 378 84 C377.46117187 84.90250488 376.92234375 85.80500977 376.3671875 86.73486328 C353.5637743 124.7522532 326.27494943 160.86015345 296.26953125 193.51171875 C294.28623448 195.68617666 292.35370316 197.89163217 290.4375 200.125 C287.19285762 203.86588181 283.69949637 207.31663132 280.17578125 210.79296875 C278.25502616 212.74131099 276.45957195 214.72999209 274.6875 216.8125 C268.06277341 224.51567045 260.72666483 231.64744278 252.9921875 238.2265625 C250.56062019 240.39113418 248.28788919 242.68429453 246 245 C241.8208822 249.2170523 237.51123352 253.14603229 233 257 C231.92092126 257.94161648 230.84289093 258.8844351 229.765625 259.828125 C213.16262234 274.34874755 196.05121921 288.08153777 178.3125 301.1875 C177.5405127 301.75791016 176.76852539 302.32832031 175.97314453 302.91601562 C149.54664003 322.34974688 121.94245176 340.1853446 93.11767578 355.84277344 C91.12009533 356.93437262 89.13557828 358.04667541 87.15234375 359.1640625 C67.28259239 370.2070105 45.96808573 378.48893169 24.625 386.1875 C23.46210953 386.60775452 23.46210953 386.60775452 22.27572632 387.03649902 C20.05312173 387.83642029 17.82809599 388.62905605 15.6015625 389.41796875 C14.62515053 389.76709572 14.62515053 389.76709572 13.62901306 390.12327576 C9.09781537 391.71001892 4.7033393 392.82416518 0 394 C0 263.98 0 133.96 0 0 Z " fill="#D1E7CC" transform="translate(0,0)"/>
</svg>
